<svg width="93" height="94" viewBox="0 0 93 94" fill="none" xmlns="http://www.w3.org/2000/svg">
<path fill-rule="evenodd" clip-rule="evenodd" d="M57.642 5.539C59.0492 5.539 60.1899 4.39826 60.1899 2.99108C60.1899 2.17265 59.804 1.44435 59.2043 0.978188H65.6055V27.6701H66.6335C66.4254 28.0002 66.305 28.3911 66.305 28.8101C66.305 29.9922 67.2632 30.9504 68.4452 30.9504C69.6273 30.9504 70.5855 29.9922 70.5855 28.8101C70.5855 28.3911 70.4651 28.0002 70.257 27.6701L92.2959 27.6701V66.4941H65.6055V93.1852H26.7815V66.4941H0.0888977V27.6701L23.5123 27.6701L24.0827 29.1977C25.2813 30.2878 27.9681 32.911 29.1266 34.6829C30.5748 36.8977 32.1203 39.8184 32.96 41.7168C33.315 42.5195 33.7093 43.1982 34.024 43.74C34.4535 44.4796 34.7349 44.9641 34.5663 45.1607C34.3394 45.4254 33.6278 45.2862 32.9221 45.1481C32.7194 45.1085 32.5172 45.0689 32.3272 45.039C31.9109 44.9736 31.2854 44.5973 30.5231 44.1386C29.7255 43.6587 28.778 43.0886 27.7636 42.6903C26.5525 42.2148 25.0645 42.2156 23.7597 42.2163C22.9275 42.2168 22.1698 42.2172 21.6059 42.094C20.2446 41.7966 20.2382 41.639 20.2222 41.2369L20.2186 41.157C20.1943 40.6945 20.1456 39.9766 19.4884 39.9522C19.1823 39.9409 18.797 40.1487 18.3497 40.39C17.8367 40.6666 17.2422 40.9873 16.5921 41.0718C15.3752 41.23 13.6618 41.2425 11.4065 39.5824C10.4726 38.8949 9.63659 38.0706 8.93507 37.3789C7.94252 36.4002 7.21918 35.687 6.8686 36.0024C6.28049 36.5286 9.53067 40.3979 12.0689 41.3885C13.4299 41.9196 14.4438 42.2104 16.0505 42.6713C17.4405 43.07 19.2743 43.596 22.1601 44.5149C26.9541 46.0413 28.2197 46.7591 29.4826 47.4755C29.8588 47.6889 30.2347 47.9021 30.7035 48.1365C32.067 48.8183 32.686 49.0174 33.1493 49.1665C33.3801 49.2408 33.5725 49.3027 33.799 49.4057C34.0997 49.5424 34.4428 49.8119 34.8361 50.121C35.3333 50.5117 35.9108 50.9655 36.5849 51.2939C37.203 51.595 38.1215 51.7582 39.012 51.9164C39.8605 52.0672 40.6836 52.2134 41.1971 52.4701C41.7364 52.7398 42.5114 53.4078 43.2556 54.0492C43.9636 54.6593 44.6438 55.2456 45.0664 55.4418C45.9331 55.8442 48.2547 56.5561 49.0285 56.618C49.634 56.6665 50.8836 56.6391 51.5323 56.6249L51.5342 56.6249L51.5356 56.6248C51.7144 56.6209 51.847 56.618 51.9073 56.618C52.0388 56.618 51.9909 56.8251 51.9298 57.0894C51.8614 57.3847 51.7766 57.7513 51.9073 57.98C52.1388 58.3851 54.8045 58.2492 55.6823 58.2045L55.8385 58.1967C56.0637 58.186 56.2629 58.153 56.4335 58.1247C56.7554 58.0713 56.9755 58.0348 57.0767 58.1967C57.1478 58.3105 56.9641 58.6137 56.7747 58.9263C56.5519 59.2941 56.3212 59.675 56.4885 59.7754C56.7981 59.9611 61.0388 59.1872 62.3389 58.692C62.8961 58.4797 63.5442 58.1765 64.142 57.8968C64.939 57.524 65.6466 57.1929 65.9296 57.1752C66.4249 57.1442 66.6416 56.2775 66.7035 55.4418C66.7444 54.8892 67.286 54.8914 67.8541 54.8937C68.1452 54.8949 68.4433 54.8961 68.6846 54.8227C69.3965 54.606 70.2632 52.9654 70.2632 52.4082C70.2632 52.2862 70.2915 52.0958 70.3271 51.8556C70.4541 50.9994 70.6749 49.5103 70.0466 48.2294C69.2417 46.5888 68.0345 46.465 66.9821 46.3721C66.3386 46.3153 65.753 46.9181 65.3102 47.3739C65.0287 47.6636 64.8048 47.894 64.6605 47.8579C64.4832 47.8136 64.3271 47.1841 64.1652 46.5313C63.9879 45.8163 63.8036 45.0734 63.5771 45.0411C63.3534 45.0091 63.0389 45.4144 62.7487 45.7884C62.4767 46.1389 62.226 46.462 62.0913 46.3721C62.0071 46.316 62.0077 46.0676 62.0086 45.727C62.0105 44.9404 62.0137 43.6619 60.9769 43.1219C59.9758 42.6005 59.1714 42.7396 58.5448 42.8479C58.2415 42.9004 57.9798 42.9456 57.7577 42.9052C57.3751 42.8357 57.3344 42.5805 57.3009 42.3702C57.2748 42.2062 57.253 42.0695 57.0767 42.0695C56.9018 42.0695 56.6976 42.1513 56.4668 42.2439C56.1665 42.3643 55.8211 42.5028 55.4361 42.5028C54.9002 42.5028 52.697 42.177 50.636 41.8722C50.0778 41.7897 49.5299 41.7087 49.0285 41.6361C46.676 41.2956 44.8806 41.6051 44.633 43.71C44.492 44.9088 44.6362 45.509 44.7156 45.8391C44.7755 46.0886 44.7984 46.1838 44.633 46.2667C44.3936 46.3866 43.6677 46.2151 43.0311 46.0648C42.6458 45.9739 42.2932 45.8906 42.1012 45.8844C41.8551 45.8765 41.4556 45.4619 40.9304 44.9169C40.369 44.3342 39.6639 43.6026 38.8493 43.0595C37.2726 42.0084 36.6977 40.8915 36.1065 39.2491C35.5408 37.6779 34.87 36.9785 34.1801 36.2593L34.0863 36.1614C33.737 35.7963 33.2842 35.3927 32.7944 34.9564C32.2711 34.4901 31.7053 33.986 31.1793 33.4515C30.161 32.4168 29.5862 31.5792 29.8489 30.528C30.0231 29.8315 29.6419 29.5749 29.4032 29.4141C29.2816 29.3323 29.1969 29.2752 29.2413 29.1977C29.3062 29.0839 29.7973 29.1149 30.3127 29.1474C30.8392 29.1805 31.3912 29.2153 31.5406 29.0991C31.7771 28.9152 31.6391 27.6977 31.5406 27.1119L26.7815 26.9547V0.978188H56.0797C55.48 1.44435 55.0941 2.17265 55.0941 2.99108C55.0941 4.39826 56.2348 5.539 57.642 5.539ZM59.7143 8.63048C59.7143 9.11831 59.3189 9.51377 58.8311 9.51377C58.3432 9.51377 57.9478 9.11831 57.9478 8.63048C57.9478 8.14266 58.3432 7.7472 58.8311 7.7472C59.3189 7.7472 59.7143 8.14266 59.7143 8.63048ZM56.0793 15.323C57.2426 15.323 58.1856 14.38 58.1856 13.2167C58.1856 12.0535 57.2426 11.1105 56.0793 11.1105C54.916 11.1105 53.973 12.0535 53.973 13.2167C53.973 14.38 54.916 15.323 56.0793 15.323ZM63.3153 12.8091C63.3153 13.5596 62.7069 14.168 61.9565 14.168C61.206 14.168 60.5976 13.5596 60.5976 12.8091C60.5976 12.0586 61.206 11.4503 61.9565 11.4503C62.7069 11.4503 63.3153 12.0586 63.3153 12.8091ZM60.3938 19.8754C61.5758 19.8754 62.534 18.9171 62.534 17.7351C62.534 16.553 61.5758 15.5948 60.3938 15.5948C59.2117 15.5948 58.2535 16.553 58.2535 17.7351C58.2535 18.9171 59.2117 19.8754 60.3938 19.8754ZM58.865 20.9285C58.865 21.3788 58.5 21.7438 58.0497 21.7438C57.5994 21.7438 57.2344 21.3788 57.2344 20.9285C57.2344 20.4782 57.5994 20.1131 58.0497 20.1131C58.5 20.1131 58.865 20.4782 58.865 20.9285ZM63.1455 23.3405C63.9523 23.3405 64.6063 22.6865 64.6063 21.8797C64.6063 21.0729 63.9523 20.4189 63.1455 20.4189C62.3388 20.4189 61.6848 21.0729 61.6848 21.8797C61.6848 22.6865 62.3388 23.3405 63.1455 23.3405ZM59.3066 25.9225C59.3066 27.1608 58.3028 28.1647 57.0645 28.1647C55.8261 28.1647 54.8223 27.1608 54.8223 25.9225C54.8223 24.6842 55.8261 23.6804 57.0645 23.6804C58.3028 23.6804 59.3066 24.6842 59.3066 25.9225ZM64.6063 26.8737C64.6063 27.7556 63.8914 28.4705 63.0096 28.4705C62.1277 28.4705 61.4128 27.7556 61.4128 26.8737C61.4128 25.9919 62.1277 25.277 63.0096 25.277C63.8914 25.277 64.6063 25.9919 64.6063 26.8737ZM71.9444 47.9026C71.9444 48.2403 71.6707 48.5141 71.3329 48.5141C70.9952 48.5141 70.7214 48.2403 70.7214 47.9026C70.7214 47.5648 70.9952 47.291 71.3329 47.291C71.6707 47.291 71.9444 47.5648 71.9444 47.9026ZM68.9548 45.5245C69.255 45.5245 69.4984 45.2812 69.4984 44.981C69.4984 44.6808 69.255 44.4374 68.9548 44.4374C68.6546 44.4374 68.4112 44.6808 68.4112 44.981C68.4112 45.2812 68.6546 45.5245 68.9548 45.5245ZM72.1482 45.1169C72.1482 45.5296 71.8136 45.8643 71.4009 45.8643C70.9881 45.8643 70.6535 45.5296 70.6535 45.1169C70.6535 44.7041 70.9881 44.3695 71.4009 44.3695C71.8136 44.3695 72.1482 44.7041 72.1482 45.1169ZM69.5324 43.32C69.8721 43.32 70.1475 43.0446 70.1475 42.7048C70.1475 42.3651 69.8721 42.0897 69.5324 42.0897C69.1926 42.0897 68.9172 42.3651 68.9172 42.7048C68.9172 43.0446 69.1926 43.32 69.5324 43.32ZM69.0227 40.1229C69.0227 40.7796 68.4904 41.3119 67.8337 41.3119C67.1771 41.3119 66.6448 40.7796 66.6448 40.1229C66.6448 39.4663 67.1771 38.9339 67.8337 38.9339C68.4904 38.9339 69.0227 39.4663 69.0227 40.1229ZM69.8042 38.2544C70.7423 38.2544 71.5028 37.4939 71.5028 36.5558C71.5028 35.6177 70.7423 34.8572 69.8042 34.8572C68.866 34.8572 68.1055 35.6177 68.1055 36.5558C68.1055 37.4939 68.866 38.2544 69.8042 38.2544ZM67.2222 36.0122C67.2222 36.425 66.8876 36.7596 66.4748 36.7596C66.062 36.7596 65.7274 36.425 65.7274 36.0122C65.7274 35.5994 66.062 35.2648 66.4748 35.2648C66.8876 35.2648 67.2222 35.5994 67.2222 36.0122ZM63.893 34.4155C64.6997 34.4155 65.3538 33.7615 65.3538 32.9547C65.3538 32.148 64.6997 31.494 63.893 31.494C63.0862 31.494 62.4322 32.148 62.4322 32.9547C62.4322 33.7615 63.0862 34.4155 63.893 34.4155ZM65.3538 29.9312C65.6727 29.9312 65.9313 29.6726 65.9313 29.3537C65.9313 29.0347 65.6727 28.7762 65.3538 28.7762C65.0348 28.7762 64.7763 29.0347 64.7763 29.3537C64.7763 29.6726 65.0348 29.9312 65.3538 29.9312ZM61.0053 30.203C61.343 30.203 61.6168 29.9292 61.6168 29.5915C61.6168 29.2537 61.343 28.98 61.0053 28.98C60.6675 28.98 60.3938 29.2537 60.3938 29.5915C60.3938 29.9292 60.6675 30.203 61.0053 30.203ZM65.3197 3.09301C65.3197 3.89978 64.6657 4.55379 63.859 4.55379C63.0522 4.55379 62.3982 3.89978 62.3982 3.09301C62.3982 2.28625 63.0522 1.63223 63.859 1.63223C64.6657 1.63223 65.3197 2.28625 65.3197 3.09301Z" fill="#027DD7"/>
<path d="M46.9462 47.5802C47.4014 47.8013 49.209 49.1277 49.5731 49.4918C49.9372 49.8559 50.2103 49.4528 50.1973 49.3358C50.1949 49.3143 50.2139 49.2382 50.2415 49.1281C50.3642 48.6375 50.6559 47.4714 49.9762 47.4502C49.1439 47.4242 47.6744 47.4502 46.9462 47.5802Z" fill="#027DD7"/>
<path d="M64.0797 54.4972C64.2875 54.6898 64.4825 54.8704 64.5228 54.941C64.6003 55.0767 63.7377 56.3949 62.7587 56.6857C61.7797 56.9765 60.7328 57.277 60.4614 57.1413C60.19 57.0056 62.8847 54.6114 63.5826 54.0104C63.6849 54.1314 63.8878 54.3195 64.0797 54.4972Z" fill="#027DD7"/>
</svg>
