<?xml version="1.0" standalone="no"?>
<!DOCTYPE svg PUBLIC "-//W3C//DTD SVG 20010904//EN"
 "http://www.w3.org/TR/2001/REC-SVG-20010904/DTD/svg10.dtd">
<svg version="1.0" xmlns="http://www.w3.org/2000/svg"
 width="752.000000pt" height="752.000000pt" viewBox="0 0 752.000000 752.000000"
 preserveAspectRatio="xMidYMid meet">
<metadata>
Created by potrace 1.14, written by Peter Selinger 2001-2017
</metadata>
<g transform="translate(0.000000,752.000000) scale(0.100000,-0.100000)"
fill="#000000" stroke="none">
<path d="M2190 7435 c-4 -5 -7 -473 -6 -1040 l1 -1030 40 -2 c22 -1 104 -4
183 -6 79 -2 147 -8 152 -13 15 -16 17 -134 3 -146 -8 -6 -50 -11 -98 -10 -47
0 -85 -2 -85 -5 0 -3 10 -14 23 -25 19 -17 22 -30 23 -96 1 -96 20 -129 137
-242 197 -190 264 -257 282 -280 19 -23 68 -118 85 -165 46 -122 117 -227 191
-280 8 -6 30 -22 49 -35 19 -14 77 -66 128 -117 52 -51 101 -93 110 -94 9 0
24 -2 32 -4 49 -12 69 -16 105 -21 45 -7 45 -7 64 -5 10 1 12 11 6 44 -4 23
-7 69 -7 102 2 172 74 235 259 229 49 -2 102 -5 118 -7 17 -3 50 -8 74 -11 23
-3 57 -9 75 -12 17 -3 47 -7 67 -9 20 -1 45 -5 55 -8 25 -8 115 -18 191 -22
44 -3 77 2 113 16 l51 19 15 -35 c13 -32 30 -42 59 -35 6 1 46 4 91 6 68 3 88
0 125 -19 24 -12 54 -37 66 -55 21 -32 39 -123 36 -184 -1 -18 3 -28 13 -28 8
0 14 3 14 8 0 4 20 28 43 55 53 58 65 52 92 -43 30 -112 36 -130 45 -135 5 -3
36 19 70 50 78 68 110 76 215 50 37 -10 116 -65 109 -76 -3 -5 -1 -9 5 -9 31
0 69 -134 66 -230 -5 -153 -29 -234 -92 -309 -26 -31 -34 -34 -106 -41 -43 -4
-83 -12 -87 -16 -5 -5 -12 -27 -15 -49 -10 -65 -43 -134 -57 -119 -6 5 -53
-14 -148 -58 -65 -31 -111 -49 -120 -50 -3 0 -9 -3 -15 -8 -10 -8 -123 -40
-160 -46 -11 -1 -20 -3 -20 -4 0 -2 -23 -7 -69 -15 -21 -4 -48 -9 -60 -11 -11
-2 -48 -7 -81 -10 -33 -3 -62 -8 -64 -10 -2 -2 -10 1 -17 7 -10 8 -6 21 17 64
23 43 26 55 15 64 -7 6 -16 8 -19 5 -3 -4 -42 -7 -87 -9 -45 -1 -84 -5 -87 -8
-3 -4 -13 -2 -23 3 -10 5 -20 6 -24 3 -11 -11 -136 0 -159 14 -5 3 -7 30 -4
59 l5 54 -123 -1 c-122 0 -183 10 -300 49 -27 9 -52 17 -55 17 -35 9 -108 47
-130 68 -11 9 -21 17 -24 17 -2 0 -25 19 -50 42 -25 24 -64 57 -86 73 -22 17
-47 36 -55 43 -29 26 -113 53 -213 68 -20 3 -55 10 -77 16 -22 5 -51 12 -64
15 -38 7 -92 37 -184 106 -60 45 -109 72 -154 87 -71 23 -153 62 -323 153 -58
31 -152 75 -209 97 -93 37 -411 146 -451 155 -8 2 -35 10 -60 18 -25 8 -70 22
-100 31 -30 8 -138 40 -240 70 -102 30 -211 64 -242 76 -32 12 -61 21 -65 22
-5 0 -20 9 -35 19 -14 10 -29 19 -32 19 -11 0 -121 88 -171 137 -63 62 -93 96
-131 153 -38 55 -46 86 -28 101 18 14 55 -12 154 -107 243 -236 362 -302 540
-302 92 0 135 11 203 50 26 15 54 28 62 28 8 0 15 4 15 9 0 10 59 -3 71 -16 6
-7 18 -68 19 -101 0 -12 51 -39 94 -49 12 -2 82 -6 156 -8 297 -8 368 -28 580
-160 56 -35 122 -67 144 -70 12 -1 37 -6 56 -9 65 -13 90 -13 107 -1 15 11 16
16 3 41 -7 16 -14 31 -15 34 0 3 -16 32 -36 65 -19 33 -48 87 -63 120 -140
295 -282 543 -378 662 -66 82 -178 202 -279 300 -62 60 -96 113 -82 127 4 3 1
6 -5 6 -6 0 -12 10 -14 23 l-3 22 -935 1 c-514 0 -937 -3 -940 -7 -4 -5 -5
-3063 -1 -3091 1 -3 478 -6 1062 -6 583 0 1063 -3 1066 -6 3 -3 6 -484 7
-1068 l1 -1063 1540 0 c847 -1 1545 1 1552 3 8 3 11 266 11 1064 0 583 3 1062
5 1065 3 2 484 5 1068 6 l1063 2 1 1530 c0 842 -1 1539 -3 1550 -4 21 -5 21
-879 21 l-875 0 7 -25 c25 -101 -7 -181 -87 -219 -136 -63 -286 69 -232 205
15 37 11 41 -34 39 -17 0 -32 4 -33 9 0 6 -1 486 -2 1069 l-2 1059 -155 -1
c-85 0 -159 -1 -165 -2 -5 -2 -14 -1 -20 0 -37 8 -149 2 -153 -8 -2 -7 1 -12
6 -12 5 0 19 -20 32 -44 87 -171 -91 -361 -262 -279 -44 22 -97 76 -107 112
-3 9 -5 45 -5 81 0 64 18 112 51 133 7 4 13 11 13 15 0 11 -2321 8 -2330 -3z
m3039 -79 c65 -62 37 -170 -50 -193 -40 -10 -45 -10 -81 5 -82 34 -84 170 -3
209 39 19 103 9 134 -21z m-438 -474 c47 -39 16 -122 -46 -122 -29 0 -63 29
-66 55 -9 68 60 109 112 67z m-206 -262 c41 -14 83 -58 100 -106 34 -99 -38
-209 -143 -218 -127 -11 -218 115 -168 235 33 78 125 117 211 89z m473 -36
c24 -16 52 -69 47 -88 -2 -6 -6 -23 -9 -38 -8 -35 -61 -73 -99 -70 -71 6 -115
59 -104 127 13 78 97 113 165 69z m-91 -341 c98 -65 99 -216 1 -280 -110 -74
-256 -4 -264 125 -9 142 145 232 263 155z m-237 -355 c11 -12 20 -27 20 -32
-1 -32 -15 -56 -40 -66 -52 -22 -95 11 -87 66 7 53 70 71 107 32z m418 -17
c24 -13 54 -54 59 -80 2 -9 -2 -34 -8 -57 -12 -46 -49 -74 -104 -80 -81 -7
-145 87 -109 162 29 60 104 86 162 55z m-490 -255 c69 -15 123 -90 124 -169 2
-178 -229 -244 -327 -95 -19 28 -26 53 -27 88 -1 128 100 206 230 176z m494
-140 c49 -32 69 -117 41 -166 -68 -116 -247 -65 -237 68 2 23 11 53 21 66 38
51 122 67 175 32z m155 -286 c15 -30 2 -56 -32 -62 -27 -6 -43 8 -50 41 -9 48
59 66 82 21z m-353 -6 c23 -23 20 -51 -9 -70 -23 -15 -27 -15 -51 1 -21 13
-25 22 -19 43 11 43 50 56 79 26z m258 -203 c73 -41 72 -158 -1 -196 -79 -41
-164 3 -176 90 0 6 3 26 8 45 18 69 102 99 169 61z m481 -270 c38 -25 55 -51
63 -98 13 -82 -61 -161 -140 -151 -46 7 -59 11 -76 27 -51 48 -63 109 -32 171
31 63 127 89 185 51z m-289 -31 c17 -17 10 -72 -10 -87 -21 -16 -73 -10 -85 9
-27 42 13 105 59 93 15 -3 31 -10 36 -15z m87 -279 c22 -1 55 -32 64 -59 12
-39 -3 -88 -32 -108 -99 -65 -204 67 -116 146 17 16 40 27 50 25 10 -2 25 -4
34 -4z m157 -294 c3 -28 -27 -57 -56 -53 -35 5 -49 91 -14 91 6 0 14 3 18 8
13 12 49 -19 52 -46z m-62 -162 c20 -31 13 -52 -22 -61 -20 -5 -31 -2 -41 11
-17 25 -17 31 7 55 26 26 36 25 56 -5z m202 9 c43 -30 16 -104 -38 -104 -9 0
-26 10 -39 21 -17 16 -21 28 -16 48 11 48 52 64 93 35z m-1 -240 c14 -19 4
-53 -20 -68 -26 -16 -67 8 -67 40 0 48 59 67 87 28z"/>
<path d="M3863 3722 c-29 -2 -53 -7 -53 -13 0 -5 4 -9 9 -9 5 0 16 -6 23 -12
7 -7 51 -41 96 -76 67 -50 87 -60 101 -52 28 15 43 141 19 156 -13 8 -109 11
-195 6z"/>
<path d="M5074 3152 c-23 -20 -64 -58 -90 -83 -118 -112 -128 -135 -52 -117
98 23 121 30 159 49 35 17 109 95 109 114 -1 15 -58 75 -72 75 -7 0 -32 -17
-54 -38z"/>
</g>
</svg>
